<svg version="1.0" xmlns="http://www.w3.org/2000/svg" viewBox="0 0 128 128"><path d="M45.7 15.4c-.5 1.2-1.2 1.3-3.5.4-4-1.5-6-.5-6.7 3.6-1.6 8.2 4.2 14.9 10.7 12.7 5.4-1.9 9.2-1.3 13.3 1.9 4.3 3.4 6.1 3.8 6.9 1.2 1.4-4.2-3.3-13.7-6.3-12.7-1.2.4-2.1-.2-2.9-2-1.2-2.6-3.2-3.4-3.2-1.3 0 .7-1.5-.2-3.3-2-3.7-3.6-4.3-3.8-5-1.8z"/><path d="M46.1 34.4c-2.6 1.5-5 5.1-5.1 7.8 0 2.3.2 2.3 4.6-.7 2-1.4 4.5-2.5 5.4-2.5 1 0 2-.8 2.4-1.8.3-.9.9-2.3 1.2-3 .8-1.7-5.3-1.6-8.5.2zm9.6 2.2c-.4.4-.7 1.8-.7 3.1 0 2.6 2.7 3.2 3.7.7.6-1.7-1.9-4.9-3-3.8zm6 2.8c-.3.8-.1 1.7.6 2 .7.2.2.5-1.1.5-3.3.1-2.2 2.5 1.3 2.9 2.3.3 2.7.1 2.1-1.5-.6-1.4-.5-1.6.5-.6 1.8 1.8 2.9 1.6 2.9-.3 0-1.8-2.7-4.3-4.6-4.4-.7 0-1.4.6-1.7 1.4zm-17.8 5.4c-2.5 2.3-3.2 3.8-3.6 7.8-.4 4.8.2 7.3 5.3 21.7 1.8 5.2 3.3 4.8 3.4-.8.1-5.9 1.3-5.9 6.8-.1 2.9 3 5.2 6 5.2 6.5 0 2.1 2 1 2.6-1.4.5-2.2.1-4.3-2.1-9.8-.6-1.3-.2-1.7 1.6-1.7 3.2 0 6-1.9 4.1-2.7-2.9-1.1-8.6-6.9-9.8-10-.8-1.8-1.4-4.5-1.4-6.1 0-6.3-6.8-8.1-12.1-3.4z"/><path d="M58 49.2c0 4.6 4.5 7.7 7.6 5.3 1.8-1.5 1.8-1.6-1.6-4.5-4.1-3.6-6-3.8-6-.8zm8-1.9c0 1.7 3.5 6.7 4.6 6.7 2.1 0 1.7-4.8-.5-6-1.9-1-4.1-1.3-4.1-.7zm-.4 9.2c-2.5 1.9-1.5 4 3.4 6.5 4.5 2.3 4.5 3.6-.3 4.8-3.1.8-3.2 1.1-2.9 5.2.2 2.4-.2 6.1-.9 8.2-1.5 4.5-.5 6.1 4.9 7.9 5.6 1.8 7.2 3.6 7.2 8.4 0 2.9-.9 5.5-3 8.8-5.1 8.1-4.2 8.5 4.6 2.2 10.8-7.7 13.8-15.6 10.9-28-3.2-14.2-9.2-21.5-20.1-24.8-1-.4-2.7 0-3.8.8zM50.5 76.2c-.5 2.4-.9 4.7-.9 5.3-.1 1.3 8.7 1.1 9.1-.2.4-1.1-5.4-9.3-6.6-9.3-.5 0-1.2 1.9-1.6 4.2z"/></svg>